# xmcd
#
# Track frame offsets:
#  150
#  21495
#  39483
#  60993
#
# Disc length: 1041 seconds
#
# Revision: 0
# Processed by: cddbd v1.5.1PL2 Copyright (c) Steve Scherf et al.
# Submitted via: Collectorz.com_Music_Collector 6.9
#
DISCID=2b040f04
DTITLE=Various Artist - Ecko Records Mini Sampler 2006
DYEAR=2006
DGENRE=Blues Soul
TTITLE0=Carl Sims - I Needed A Woman
TTITLE1=Donnie Ray - Don't Stop My Party
TTITLE2=Lorraine Turner - You Lost A Fortune
TTITLE3=Rick Lawson - She Was Cheatin' Better Than Me
EXTD=
EXTT0=
EXTT1=
EXTT2=
EXTT3=
PLAYORDER=
